<svg xmlns="http://www.w3.org/2000/svg" xmlns:xlink="http://www.w3.org/1999/xlink" width="60" zoomAndPan="magnify" viewBox="0 0 45 30.000001" height="40" preserveAspectRatio="xMidYMid meet" version="1.0"><defs><clipPath id="48b94ca6f5"><path d="M 0.726562 0 L 44.273438 0 L 44.273438 9.289062 L 0.726562 9.289062 Z M 0.726562 0 " clip-rule="nonzero"/></clipPath><clipPath id="1da9d4cab9"><path d="M 0.726562 19.453125 L 44.273438 19.453125 L 44.273438 29.03125 L 0.726562 29.03125 Z M 0.726562 19.453125 " clip-rule="nonzero"/></clipPath><clipPath id="f4300cbdba"><path d="M 0.726562 9.433594 L 44.273438 9.433594 L 44.273438 19.597656 L 0.726562 19.597656 Z M 0.726562 9.433594 " clip-rule="nonzero"/></clipPath><clipPath id="f684803d42"><path d="M 19.007812 11.042969 L 26 11.042969 L 26 17.699219 L 19.007812 17.699219 Z M 19.007812 11.042969 " clip-rule="nonzero"/></clipPath><clipPath id="ea83638fdb"><path d="M 22.5 11.042969 L 23.324219 13.585938 L 25.992188 13.585938 L 23.832031 15.15625 L 24.65625 17.699219 L 22.5 16.128906 L 20.34375 17.699219 L 21.167969 15.15625 L 19.007812 13.585938 L 21.675781 13.585938 Z M 22.5 11.042969 " clip-rule="nonzero"/></clipPath><clipPath id="ab92796a3f"><path d="M 30.34375 11.1875 L 37.339844 11.1875 L 37.339844 17.84375 L 30.34375 17.84375 Z M 30.34375 11.1875 " clip-rule="nonzero"/></clipPath><clipPath id="978b88fa1b"><path d="M 33.835938 11.1875 L 34.660156 13.730469 L 37.328125 13.730469 L 35.167969 15.300781 L 35.992188 17.84375 L 33.835938 16.273438 L 31.679688 17.84375 L 32.503906 15.300781 L 30.34375 13.730469 L 33.011719 13.730469 Z M 33.835938 11.1875 " clip-rule="nonzero"/></clipPath><clipPath id="9720888ea5"><path d="M 7.671875 11.042969 L 14.664062 11.042969 L 14.664062 17.699219 L 7.671875 17.699219 Z M 7.671875 11.042969 " clip-rule="nonzero"/></clipPath><clipPath id="92e6a29608"><path d="M 11.164062 11.042969 L 11.988281 13.585938 L 14.65625 13.585938 L 12.496094 15.15625 L 13.320312 17.699219 L 11.164062 16.128906 L 9.007812 17.699219 L 9.832031 15.15625 L 7.671875 13.585938 L 10.339844 13.585938 Z M 11.164062 11.042969 " clip-rule="nonzero"/></clipPath></defs><g clip-path="url(#48b94ca6f5)"><path fill="#01793d" d="M 0.726562 0 L 44.273438 0 L 44.273438 9.289062 L 0.726562 9.289062 Z M 0.726562 0 " fill-opacity="1" fill-rule="nonzero"/></g><g clip-path="url(#1da9d4cab9)"><path fill="#000000" d="M 0.726562 19.453125 L 44.289062 19.453125 L 44.289062 29.03125 L 0.726562 29.03125 Z M 0.726562 19.453125 " fill-opacity="1" fill-rule="nonzero"/></g><g clip-path="url(#f4300cbdba)"><path fill="#ffffff" d="M 0.726562 9.433594 L 44.269531 9.433594 L 44.269531 19.597656 L 0.726562 19.597656 Z M 0.726562 9.433594 " fill-opacity="1" fill-rule="nonzero"/></g><g clip-path="url(#f684803d42)"><g clip-path="url(#ea83638fdb)"><path fill="#d0091f" d="M 19.007812 11.042969 L 26 11.042969 L 26 17.699219 L 19.007812 17.699219 Z M 19.007812 11.042969 " fill-opacity="1" fill-rule="nonzero"/></g></g><g clip-path="url(#ab92796a3f)"><g clip-path="url(#978b88fa1b)"><path fill="#d0091f" d="M 30.34375 11.1875 L 37.339844 11.1875 L 37.339844 17.84375 L 30.34375 17.84375 Z M 30.34375 11.1875 " fill-opacity="1" fill-rule="nonzero"/></g></g><g clip-path="url(#9720888ea5)"><g clip-path="url(#92e6a29608)"><path fill="#d0091f" d="M 7.671875 11.042969 L 14.664062 11.042969 L 14.664062 17.699219 L 7.671875 17.699219 Z M 7.671875 11.042969 " fill-opacity="1" fill-rule="nonzero"/></g></g></svg>