<?xml version="1.0" encoding="UTF-8" standalone="no"?>
<!-- Created with Inkscape (http://www.inkscape.org/) -->

<svg
   version="1.1"
   id="svg1"
   width="64"
   height="64"
   viewBox="0 0 64 64"
   xmlns="http://www.w3.org/2000/svg"
   xmlns:svg="http://www.w3.org/2000/svg">
  <defs
     id="defs1" />
  <g
     id="g1">
    <g
       id="g2"
       transform="translate(-0.54237375,-0.27118637)">
      <path
         style="fill:#fee3bb"
         d="m 6.6045164,18.268062 c 1.65,-0.317804 4.3499996,-0.317804 5.9999996,0 1.65,0.317804 0.3,0.577825 -2.9999996,0.577825 -3.3,0 -4.65,-0.260021 -3,-0.577825 z"
         id="path14" />
      <path
         style="fill:#fed293"
         d="m 11.93785,38.325999 c 0.916666,-0.369883 2.416666,-0.369883 3.333333,0 0.916667,0.369883 0.166667,0.672514 -1.666667,0.672514 -1.833333,0 -2.583333,-0.302631 -1.666666,-0.672514 z"
         id="path13" />
      <path
         style="fill:#f7bf91"
         d="M 6.4934053,26.320151 C 6.0045164,25.831262 5.6137041,24.781262 5.6249334,23.986817 5.637579,23.092183 6.0359973,23.157075 6.6716458,24.1573 c 0.6575888,1.034748 5.7996422,1.772769 14.3129162,2.05428 l 13.286621,0.439353 -13.444444,0.279053 C 13.432294,27.083466 6.9822942,26.809039 6.4934053,26.320151 Z M 56.551948,25.343518 c 0.945579,-1.026036 1.929316,-1.665955 2.186082,-1.422041 0.790865,0.751278 -1.213518,3.287562 -2.598105,3.287562 -0.718967,0 -0.533557,-0.839484 0.412023,-1.865521 z"
         id="path12" />
      <path
         style="fill:#fec26c"
         d="m 15.93785,59.546372 c 8.983333,-0.230675 23.683333,-0.230675 32.666666,0 8.983334,0.230675 1.633334,0.419409 -16.333333,0.419409 -17.966667,0 -25.3166666,-0.188734 -16.333333,-0.419409 z m 0.64267,-16.337333 c 0,-2.566666 0.274394,-3.616666 0.609764,-2.333333 0.33537,1.283333 0.33537,3.383333 0,4.666667 -0.33537,1.283333 -0.609764,0.233333 -0.609764,-2.333334 z m 30.79485,-4.666666 c 0.0059,-5.133334 0.24691,-7.069951 0.535544,-4.303594 0.288634,2.766356 0.283794,6.966356 -0.01075,9.333333 -0.294549,2.366977 -0.530704,0.103594 -0.524789,-5.029739 z M 25.815043,11.209039 c 0,-1.8333328 0.302631,-2.5833328 0.672514,-1.6666662 0.369883,0.9166662 0.369883,2.4166662 0,3.3333332 -0.369883,0.916667 -0.672514,0.166667 -0.672514,-1.666667 z"
         id="path11" />
      <path
         style="fill:#feb348"
         d="m 28.684342,39.875706 c 0.0075,-4.4 0.256401,-6.039254 0.553149,-3.642788 0.296749,2.396467 0.290626,5.996467 -0.01361,8 -0.304232,2.003534 -0.547027,0.04279 -0.539543,-4.357212 z m 6.691028,-1.333333 c 0.0059,-5.133334 0.24691,-7.069951 0.535544,-4.303594 0.288634,2.766356 0.283794,6.966356 -0.01075,9.333333 -0.294549,2.366977 -0.530704,0.103594 -0.524789,-5.029739 z M 3.0431129,21.097928 c 0.063979,-1.553257 0.3799204,-1.869199 0.8055556,-0.805555 0.3851608,0.9625 0.3377924,2.1125 -0.1052632,2.555555 -0.4430556,0.443056 -0.7581871,-0.344444 -0.7002924,-1.75 z m 57.3333331,0 c 0.06398,-1.553257 0.379921,-1.869199 0.805556,-0.805555 0.385161,0.9625 0.337792,2.1125 -0.105263,2.555555 -0.443056,0.443056 -0.758188,-0.344444 -0.700293,-1.75 z"
         id="path10" />
      <path
         style="fill:#feb244"
         d="m 18.620062,14.266025 c 1.65855,-0.318924 4.05855,-0.306816 5.333333,0.02691 1.274784,0.333723 -0.08221,0.594661 -3.015545,0.579862 -2.933334,-0.0148 -3.976338,-0.287846 -2.317788,-0.60677 z"
         id="path9" />
      <path
         style="fill:#f59c3a"
         d="m 36.629892,26.285052 c 1.29729,-0.338058 3.09729,-0.315826 4,0.04941 0.90271,0.365231 -0.158709,0.641824 -2.358709,0.614651 -2.2,-0.02717 -2.938581,-0.325998 -1.641291,-0.664056 z m 12,0 c 1.29729,-0.338058 3.09729,-0.315826 4,0.04941 0.90271,0.365231 -0.158709,0.641824 -2.358709,0.614651 -2.2,-0.02717 -2.938581,-0.325998 -1.641291,-0.664056 z"
         id="path8" />
      <path
         style="fill:#f89f33"
         d="m 17.93785,56.880755 c 7.883333,-0.23573 20.783333,-0.23573 28.666666,0 7.883334,0.23573 1.433334,0.4286 -14.333333,0.4286 -15.766667,0 -22.216667,-0.19287 -14.333333,-0.4286 z"
         id="path7" />
      <path
         style="fill:#fea625"
         d="m 23.337402,40.542373 c 0,-4.033334 0.249954,-5.683334 0.555454,-3.666667 0.305499,2.016667 0.305499,5.316667 0,7.333333 -0.3055,2.016667 -0.555454,0.366667 -0.555454,-3.666666 z m 17.371301,-2 c 0.0059,-5.133334 0.24691,-7.069951 0.535544,-4.303594 0.288634,2.766356 0.283795,6.966356 -0.01076,9.333333 -0.294549,2.366977 -0.530704,0.103594 -0.524789,-5.029739 z"
         id="path6" />
      <path
         style="fill:#fe9b0d"
         d="m 11.93785,50.325999 c 0.916666,-0.369883 2.416666,-0.369883 3.333333,0 0.916667,0.369883 0.166667,0.672514 -1.666667,0.672514 -1.833333,0 -2.583333,-0.302631 -1.666666,-0.672514 z m 13.416666,-0.02778 c 0.9625,-0.385161 2.1125,-0.337793 2.555556,0.105263 0.443056,0.443055 -0.344444,0.758187 -1.75,0.700292 -1.553257,-0.06398 -1.869199,-0.37992 -0.805556,-0.805555 z m 12,0 c 0.9625,-0.385161 2.1125,-0.337793 2.555556,0.105263 0.443056,0.443055 -0.344444,0.758187 -1.75,0.700292 -1.553257,-0.06398 -1.869199,-0.37992 -0.805556,-0.805555 z m 11.916667,0.02778 c 0.916667,-0.369883 2.416667,-0.369883 3.333333,0 0.916667,0.369883 0.166667,0.672514 -1.666666,0.672514 -1.833334,0 -2.583334,-0.302631 -1.666667,-0.672514 z"
         id="path5" />
      <path
         style="fill:#fe9600"
         d="m 15.93785,58.213039 c 8.983333,-0.230676 23.683333,-0.230676 32.666666,0 8.983334,0.230675 1.633334,0.419409 -16.333333,0.419409 -17.966667,0 -25.3166666,-0.188734 -16.333333,-0.419409 z M 6.9378497,52.542373 c 0,-0.842105 9.3333333,-1.333334 25.3333333,-1.333334 16,0 25.333333,0.491229 25.333333,1.333334 0,0.842105 -9.333333,1.333333 -25.333333,1.333333 -16,0 -25.3333333,-0.491228 -25.3333333,-1.333333 z m 3.7714793,-8 c 0.385883,-4.046364 1.084511,-5.333334 2.895187,-5.333334 1.810676,0 2.509305,1.28697 2.895188,5.333334 0.473228,4.962267 0.271795,5.333333 -2.895188,5.333333 -3.166983,0 -3.368415,-0.371066 -2.895187,-5.333333 z M 24.05128,41.97726 c 0.283201,-5.009856 1.09716,-8.152885 2.223286,-8.585021 1.340919,-0.514558 1.885239,1.423422 2.219903,7.903673 0.405113,7.84439 0.213223,8.585357 -2.223286,8.585021 C 23.854222,49.8806 23.646351,49.140502 24.05128,41.97726 Z m 11.553236,-3.434887 c 0,-10.444445 0.209151,-11.333334 2.666667,-11.333334 2.457516,0 2.666667,0.888889 2.666667,11.333334 0,10.444444 -0.209151,11.333333 -2.666667,11.333333 -2.457516,0 -2.666667,-0.888889 -2.666667,-11.333333 z m 12,0 c 0,-11.2 0.03922,-11.333334 3.333334,-11.333334 3.294117,0 3.333333,0.133334 3.333333,11.333334 0,11.2 -0.03922,11.333333 -3.333333,11.333333 -3.294118,0 -3.333334,-0.133333 -3.333334,-11.333333 z M 4.2711831,21.209039 c 0,-1.481481 1.5555555,-2 5.9999999,-2 4.444445,0 6,-0.518518 6,-2 0,-1.444444 1.481482,-2 5.333333,-2 4.779699,0 5.333334,-0.341151 5.333334,-3.286421 0,-6.7236453 4.010961,-6.6143876 19.260874,0.524662 21.28959,9.966445 20.260318,10.761759 -13.927541,10.761759 -23.9999999,0 -27.9999999,-0.285714 -27.9999999,-2 z"
         id="path4" />
      <path
         style="fill:#f1821f"
         d="m 19.271183,23.54837 c 7.15,-0.239742 18.85,-0.239742 26,0 7.15,0.239743 1.3,0.435897 -13,0.435897 -14.3,0 -20.15,-0.196154 -13,-0.435897 z"
         id="path3" />
      <path
         style="fill:#ee6b00"
         d="m 4.2711831,55.209039 c 0,-0.84656 10.2222219,-1.333333 27.9999999,-1.333333 17.777778,0 28,0.486773 28,1.333333 0,0.846561 -10.222222,1.333334 -28,1.333334 -17.777778,0 -27.9999999,-0.486773 -27.9999999,-1.333334 z M 19.271183,24.881704 c 7.15,-0.239743 18.85,-0.239743 26,0 7.15,0.239743 1.3,0.435896 -13,0.435896 -14.3,0 -20.15,-0.196153 -13,-0.435896 z"
         id="path2" />
    </g>
  </g>
</svg>
