<?xml version="1.0" encoding="UTF-8" standalone="no"?>
<!-- Created with Inkscape (http://www.inkscape.org/) -->

<svg
   version="1.1"
   id="svg1"
   width="242"
   height="362"
   viewBox="0 0 242 362"
   xmlns="http://www.w3.org/2000/svg"
   xmlns:svg="http://www.w3.org/2000/svg">
  <defs
     id="defs1" />
  <g
     id="g1">
    <path
       style="fill:#000000"
       d="m 143.13277,349.86723 c -0.36667,-0.36666 -0.66667,-2.13929 -0.66667,-3.93918 0,-2.38099 1.08971,-4.53157 4,-7.89415 2.94648,-3.40439 4,-5.50169 4,-7.96299 0,-2.8567 -0.46199,-3.50241 -3.18506,-4.45168 -1.75179,-0.61068 -4.00179,-1.84944 -5,-2.75281 -1.0151,-0.91865 -1.81031,-3.00647 -1.80443,-4.73751 0.006,-1.70225 1.108,-8.47634 2.44939,-15.05352 1.83464,-8.99573 2.15978,-12.29483 1.31233,-13.31594 -0.61961,-0.74658 -2.28434,-1.94261 -3.69939,-2.65784 -1.41506,-0.71523 -4.31574,-1.61634 -6.44594,-2.00247 -2.13021,-0.38613 -4.71771,-1.22952 -5.75,-1.87419 -1.10578,-0.69057 -1.8769,-2.31602 -1.8769,-3.95635 0,-2.09814 0.67763,-3.06119 2.75,-3.90827 l 2.75,-1.12408 -2.75,-1.04422 c -1.5125,-0.57432 -2.75,-1.75722 -2.75,-2.62866 0,-0.87145 -0.72065,-2.61333 -1.60145,-3.87085 -1.37096,-1.95732 -1.51864,-4.61601 -1.02608,-18.47251 0.31646,-8.90236 0.9542,-19.78611 1.4172,-24.18611 0.463,-4.4 1.35016,-8.93701 1.97148,-10.08224 0.62131,-1.14524 1.82923,-2.66284 2.68426,-3.37245 0.85502,-0.70961 1.55459,-2.12562 1.55459,-3.14669 0,-1.17778 -2.46383,-3.50935 -6.73932,-6.37756 -3.70663,-2.48658 -7.49432,-4.52106 -8.4171,-4.52106 -0.92277,0 -3.6905,-0.86276 -6.15051,-1.91724 -2.46,-1.05448 -4.81884,-2.47724 -5.24185,-3.16169 -0.49349,-0.79849 0.55053,-2.30309 2.91341,-4.19866 3.34309,-2.68192 3.62185,-3.27758 3.02435,-6.46251 -0.42914,-2.2875 -2.00779,-4.7276 -4.5367,-7.01232 -2.13319,-1.92722 -4.14939,-4.5832 -4.48044,-5.90218 -0.33104,-1.31899 -1.42055,-2.83628 -2.421122,-3.37178 -1.00058,-0.53549 -3.46132,-0.97362 -5.46831,-0.97362 -2.47454,0 -3.51512,-0.40234 -3.23291,-1.25 0.22889,-0.6875 1.50389,-1.38875 2.83333,-1.55834 1.32945,-0.16959 4.38747,-0.45687 6.795622,-0.6384 2.40814,-0.18153 3.84934,-0.003 3.20266,0.39661 -0.85881,0.53077 -0.75864,1.07286 0.37156,2.01085 0.85103,0.70629 1.54733,1.89372 1.54733,2.63872 0,0.745 2.44561,3.87956 5.43469,6.96567 4.34344,4.48447 5.86161,5.47562 7.56095,4.93627 1.16945,-0.37117 2.61272,-1.74247 3.20726,-3.04734 0.91953,-2.01814 1.3895,-2.20737 3.14668,-1.26695 1.13615,0.60805 4.84501,3.2897 8.24192,5.95922 3.54575,2.7865 7.21375,4.85369 8.61233,4.85369 1.61663,0 3.75817,-1.47966 6.36615,-4.39859 2.16151,-2.41923 4.71752,-5.75116 5.68002,-7.4043 0.9625,-1.65313 1.75,-3.2527 1.75,-3.55461 0,-0.3019 -2.025,-1.44466 -4.5,-2.53947 -4.1136,-1.81965 -4.5,-2.29518 -4.5,-5.5381 0,-2.6772 -0.77458,-4.28777 -3.15724,-6.56476 -2.99527,-2.86245 -3.09921,-3.20918 -2.02598,-6.7587 0.62219,-2.05781 1.01864,-6.27403 0.881,-9.36939 -0.13764,-3.09536 -0.78211,-6.26877 -1.43216,-7.05204 -0.65006,-0.78326 -0.90579,-2.5257 -0.56831,-3.87208 0.33748,-1.34638 1.14187,-3.22597 1.78753,-4.17687 0.64566,-0.95091 2.7132,-2.75091 4.59454,-4 1.88134,-1.2491 5.73152,-3.50859 8.55595,-5.02109 2.82443,-1.5125 6.32776,-2.75 7.78518,-2.75 1.45743,0 3.87153,0.78397 5.36468,1.74215 1.49315,0.95818 3.33697,2.19568 4.09738,2.75 0.76042,0.55432 3.01042,2.6334 5,4.62019 1.98959,1.98679 5.07993,5.91944 6.86743,8.73924 1.7875,2.81979 3.25,6.17211 3.25,7.4496 0,1.41416 1.15763,3.17857 2.95951,4.51076 1.62773,1.20343 3.47983,2.18806 4.11579,2.18806 0.63595,0 3.46667,0.74794 6.29049,1.66208 2.82382,0.91415 6.64615,2.37665 8.49407,3.25 1.84792,0.87336 5.26789,3.83792 7.59994,6.58792 2.33205,2.75 6.09286,7.8221 8.35735,11.27133 2.26449,3.44924 4.54186,7.94924 5.06083,10 0.51897,2.05077 1.25316,6.41262 1.63154,9.693 0.37837,3.28039 1.61445,8.90539 2.74683,12.5 1.49509,4.74602 2.16843,10.09544 2.459,19.53567 0.22006,7.15 0.61638,16.15 0.8807,20 0.44905,6.54087 0.28053,7.29516 -2.56937,11.5 l -3.04994,4.5 2.06904,1.70678 c 1.13798,0.93873 2.49321,3.18576 3.01163,4.9934 0.51843,1.80764 0.94259,5.03597 0.94259,7.17406 v 3.88745 l -3.75,-0.61984 c -2.0625,-0.34091 -5.02963,-0.62479 -6.59362,-0.63084 -1.99713,-0.008 -2.99931,-0.60637 -3.36663,-2.01101 -0.33377,-1.27635 -1.36401,-2 -2.84736,-2 -1.27839,0 -2.57827,0.41084 -2.88861,0.91299 -0.31034,0.50214 -2.4744,1.21001 -4.80902,1.57305 -2.33461,0.36303 -5.03226,0.88251 -5.99476,1.1544 -0.9625,0.27188 -1.75,1.18824 -1.75,2.03635 0,1.22333 0.77503,1.41635 3.75,0.93395 2.0625,-0.33445 4.3125,-0.59796 5,-0.5856 0.6875,0.0124 2.2625,-0.006 3.5,-0.0414 1.2375,-0.0351 4.42939,-0.0287 7.09309,0.0141 2.6637,0.0429 5.90247,0.7721 7.19728,1.62049 1.2948,0.84838 2.60291,1.50631 2.90691,1.46206 0.304,-0.0443 1.00272,-0.0805 1.55272,-0.0805 0.55,0 1,1.24175 1,2.75945 0,1.68692 -0.7863,3.25051 -2.02303,4.02286 -1.44166,0.90034 -2.57227,0.96946 -3.93426,0.24055 -1.05117,-0.56246 -2.43895,-1.02275 -3.08395,-1.02275 -0.64501,0 -0.90818,0.68941 -0.58485,1.53201 0.38728,1.00923 -0.22537,1.84122 -1.79537,2.43813 -1.31079,0.49836 -5.2397,0.71108 -8.7309,0.47271 -3.4912,-0.23837 -8.14764,-0.6915 -10.34764,-1.00696 -2.2,-0.31546 -6.25,-1.25776 -9,-2.094 -2.75,-0.83624 -6.9125,-2.2164 -9.25,-3.06702 -2.3375,-0.85062 -4.25,-1.98359 -4.25,-2.51772 0,-0.53412 0.73865,-0.68768 1.64145,-0.34125 1.37247,0.52667 1.43434,0.38034 0.37755,-0.89301 -0.69514,-0.83759 -2.15757,-1.52289 -3.24985,-1.52289 -1.62258,0 -1.87038,0.46054 -1.35425,2.51694 0.34744,1.38431 -0.23176,6.22181 -1.28711,10.75 -1.05535,4.52818 -2.66842,11.83306 -3.58459,16.23306 -0.91618,4.4 -2.03063,9.41217 -2.47656,11.13816 -0.60332,2.33514 -0.35799,3.87048 0.95871,6 0.97323,1.57401 2.07122,4.30065 2.43997,6.05919 0.60414,2.88103 0.14612,3.75055 -4.62956,8.78912 -2.91502,3.07547 -5.65973,6.2345 -6.09936,7.02008 -0.43963,0.78557 -3.19424,3.01797 -6.12136,4.96088 -4.71922,3.13243 -6.05602,3.53257 -11.80188,3.53257 -3.5639,0 -6.77982,-0.3 -7.14649,-0.66667 z M 166.4661,326.5339 c 0,-0.55 -0.47655,-1 -1.05901,-1 -0.58246,0 -0.78091,0.45 -0.44099,1 0.33992,0.55 0.81648,1 1.05902,1 0.24254,0 0.44098,-0.45 0.44098,-1 z m 50,-43.8 c 0,-0.44 -0.50483,-1.30483 -1.12185,-1.92185 -0.61702,-0.61702 -1.74202,-0.88388 -2.5,-0.59302 -0.75798,0.29087 -1.37815,0.0747 -1.37815,-0.48032 0,-0.55504 1.4625,-1.57028 3.25,-2.2561 l 3.25,-1.24694 -4,-0.70608 c -2.2,-0.38835 -4.74198,-1.02693 -5.64885,-1.41906 -0.90686,-0.39214 -1.94827,-0.22849 -2.31424,0.36366 -0.36597,0.59214 0.37601,1.4943 1.64885,2.00478 2.28734,0.91737 2.28296,0.92889 -0.37674,0.99154 -1.48004,0.0349 -2.97012,0.51504 -3.31129,1.06706 -0.34116,0.55202 -1.78484,0.71139 -3.20817,0.35416 -1.81428,-0.45536 -2.37617,-0.30699 -1.87969,0.49633 0.38949,0.63021 1.69411,1.16614 2.89915,1.19094 1.20504,0.0248 3.54098,0.66326 5.19098,1.41879 1.65,0.75552 4.4625,1.41022 6.25,1.45489 1.7875,0.0447 3.25,-0.27878 3.25,-0.71878 z m 9.2,-0.4 c -0.66,-0.66 -1.2,-1.56 -1.2,-2 0,-0.44 0.675,-0.8 1.5,-0.8 0.825,0 1.5,-0.48032 1.5,-1.06739 0,-0.64167 -0.89739,-0.79626 -2.25,-0.3876 -1.2375,0.37388 -2.64014,1.04184 -3.11698,1.48436 -0.48078,0.44618 -0.25805,1.49281 0.5,2.34957 0.75184,0.84974 2.01948,1.5621 2.81698,1.58302 1.12778,0.0296 1.18334,-0.22863 0.25,-1.16196 z m -23.33035,-5.69827 c 1.00231,-0.63495 0.40307,-1.18665 -2.2343,-2.05706 -1.98217,-0.65418 -4.55631,-0.88714 -5.72031,-0.5177 -1.164,0.36944 -1.73356,1.03332 -1.2657,1.4753 0.46786,0.44198 1.75066,1.02008 2.85066,1.28466 1.1,0.26459 2.675,0.52638 3.5,0.58176 0.825,0.0554 2.11634,-0.28976 2.86965,-0.76696 z m -48.06225,-21.7684 c 2.942,-2.24397 4.46281,-2.65499 9.59439,-2.59302 3.35402,0.0405 6.88571,-0.13982 7.84821,-0.40072 0.9625,-0.2609 1.75,-1.11904 1.75,-1.90698 0,-0.78793 0.83026,-1.43261 1.84502,-1.43261 1.01475,0 2.60111,-0.83548 3.52522,-1.85662 1.47397,-1.62871 1.49889,-2.00711 0.20298,-3.08262 -0.81248,-0.6743 -2.35726,-0.94669 -3.43285,-0.60531 -1.07558,0.34138 -2.20805,1.27855 -2.5166,2.08262 -0.31521,0.82141 -1.84226,1.46193 -3.48539,1.46193 -1.74418,0 -3.16937,-0.63837 -3.53139,-1.58179 -0.33384,-0.86998 -0.60699,-2.44498 -0.60699,-3.5 0,-1.4202 -0.70527,-1.91821 -2.71656,-1.91821 -1.49412,0 -4.64412,0.73614 -7,1.63586 -2.35589,0.89972 -4.28532,2.13722 -4.28762,2.75 -0.002,0.61278 -1.12688,3.32707 -2.49906,6.03175 -1.37218,2.70469 -2.20869,5.17969 -1.85891,5.5 0.34978,0.32032 0.83686,0.0199 1.08239,-0.66761 0.24554,-0.6875 0.8168,-1.25 1.26948,-1.25 0.45267,0 0.58769,0.9 0.30003,2 -0.28765,1.1 -0.1755,2 0.24923,2 0.42473,0 2.34552,-1.2 4.26842,-2.66667 z m -2.8074,-3.83333 c 0,-0.275 0.225,-0.5 0.5,-0.5 0.275,0 0.5,0.225 0.5,0.5 0,0.275 -0.225,0.5 -0.5,0.5 -0.275,0 -0.5,-0.225 -0.5,-0.5 z m 9.3633,-43.77638 c 1.09386,-0.79985 1.49862,-1.91989 1.08414,-3 -0.36378,-0.94799 -1.40077,-1.70476 -2.30443,-1.6817 -0.90365,0.023 -3.17849,0.85985 -5.05519,1.85954 -3.16288,1.68484 -3.27247,1.89874 -1.5,2.92768 1.0517,0.61052 2.83867,1.12373 3.97105,1.14045 1.13238,0.0167 2.84437,-0.54396 3.80443,-1.24597 z m -6.3633,-47.30695 c 0,-0.87084 -0.53437,-1.40521 -1.1875,-1.1875 -0.65312,0.21771 -1.36562,0.93021 -1.58333,1.58333 -0.21771,0.65313 0.31667,1.1875 1.1875,1.1875 0.87083,0 1.58333,-0.7125 1.58333,-1.58333 z m 15.89448,-3.66667 c 1.66467,-2.3375 4.17699,-6.3875 5.58294,-9 2.4125,-4.48284 2.44744,-4.75 0.62122,-4.75 -1.06429,0 -2.64687,-0.27314 -3.51685,-0.60699 -0.9275,-0.35591 -1.58179,-1.77924 -1.58179,-3.44098 0,-1.5587 -0.48921,-3.13634 -1.08713,-3.50588 -0.59792,-0.36954 -1.58792,-0.17109 -2.2,0.44098 -0.61208,0.61208 -1.934,1.11287 -2.93762,1.11287 -1.02627,0 -2.24067,1.09396 -2.77525,2.5 -0.58919,1.5497 -0.59798,3.42718 -0.0231,4.9392 0.51006,1.34156 1.79716,2.90469 2.86022,3.47362 1.06306,0.56893 2.21915,2.17518 2.56908,3.56943 0.37724,1.50302 0.017,3.73256 -0.88497,5.47672 -0.83667,1.61794 -1.52122,3.18906 -1.52122,3.49137 0,0.30231 0.42026,0.54966 0.93391,0.54966 0.51364,0 2.2959,-1.9125 3.96057,-4.25 z m -13.93141,-4.15286 c 0.50246,-1.32157 1.39132,-2.69813 1.97525,-3.05902 0.58393,-0.36088 1.05891,-2.9921 1.05552,-5.84714 -0.003,-2.85504 -0.67839,-6.47992 -1.5,-8.05529 -0.82161,-1.57537 -1.49384,-3.62287 -1.49384,-4.55 0,-0.92713 -0.54,-2.22569 -1.2,-2.88569 -0.66,-0.66 -1.9725,-1.2 -2.91666,-1.2 -0.94417,0 -1.95026,-0.5625 -2.23575,-1.25 -0.3562,-0.85778 -1.1668,-0.50924 -2.58333,1.11078 -1.18689,1.35738 -2.06426,3.75583 -2.06426,5.64302 0,2.05418 0.58494,3.50668 1.56339,3.88215 0.85986,0.32996 1.31224,1.00627 1.0053,1.50291 -0.30694,0.49664 0.11177,2.18732 0.93046,3.75706 0.81869,1.56975 1.47369,3.52908 1.45555,4.35408 -0.0181,0.825 -0.66864,0.0375 -1.44556,-1.75 -0.77693,-1.7875 -1.64776,-3.25 -1.93518,-3.25 -0.28743,0 -1.20915,1.32765 -2.04828,2.95034 -0.83912,1.62269 -1.52568,3.64769 -1.52568,4.5 0,1.10437 1.00571,1.54966 3.5,1.54966 1.95278,0 3.5,0.50384 3.5,1.13976 0,0.62686 0.7875,1.73755 1.75,2.46819 0.9625,0.73065 2.09864,1.34276 2.52475,1.36025 0.42612,0.0175 1.18586,-1.04949 1.68832,-2.37106 z m 58.7036,166.73619 c -0.36667,-0.36666 -0.66133,-2.50416 -0.6548,-4.75 0.007,-2.24583 0.67619,-6.55833 1.48813,-9.58333 0.81195,-3.025 1.48161,-7.20333 1.48813,-9.28518 0.007,-2.08185 0.73863,-4.89435 1.62688,-6.25 0.88826,-1.35565 2.2864,-2.46482 3.10699,-2.46482 1.03906,0 1.26504,0.53125 0.7444,1.75 -0.41117,0.9625 -1.33147,3.87821 -2.04511,6.47936 -0.71363,2.60115 -1.51156,7.77615 -1.77316,11.5 -0.2616,3.72385 -0.7957,8.23314 -1.18688,10.02064 -0.39119,1.7875 -1.03,3.25 -1.41958,3.25 -0.38958,0 -1.00833,-0.3 -1.375,-0.66667 z M 12.466098,290.0339 c 0,-0.275 0.225,-0.5 0.5,-0.5 0.275,0 0.5,0.225 0.5,0.5 0,0.275 -0.225,0.5 -0.5,0.5 -0.275,0 -0.5,-0.225 -0.5,-0.5 z m 42,-1.5 c -0.79314,-0.49019 -1.21707,-1.11625 -0.94207,-1.39125 0.275,-0.275 1.14893,-0.0989 1.94207,0.39125 0.79315,0.49019 1.21708,1.11625 0.94208,1.39125 -0.275,0.275 -1.14893,0.0989 -1.94208,-0.39125 z M 9.9660983,285.64349 c -1.65,-0.95933 -3.97622,-3.51394 -5.16938,-5.67691 -1.19316,-2.16297 -2.20566,-4.52732 -2.25,-5.25411 -0.0443,-0.72678 3.68291,-5.08495 8.2827797,-9.68482 l 8.36339,-8.36339 4.82742,0.27251 c 3.96508,0.22384 5.32925,-0.1746 7.63661,-2.23047 2.14812,-1.91398 2.80918,-3.39835 2.80918,-6.30776 0,-3.04372 -0.58334,-4.23605 -2.91638,-5.96094 -1.604,-1.18589 -3.16913,-3.11186 -3.47805,-4.27993 -0.3847,-1.45463 0.12116,-2.64269 1.60554,-3.77075 2.01916,-1.53448 2.08071,-1.93565 0.90105,-5.873 -0.90444,-3.01877 -0.95848,-4.5337 -0.18915,-5.30302 0.59235,-0.59235 1.07699,-1.89625 1.07699,-2.89756 0,-1.00131 -1.84495,-5.6137 -4.0999,-10.24976 -3.53539,-7.26858 -4.03211,-9.09014 -3.60757,-13.22944 0.27078,-2.64013 1.04751,-6.82524 1.72606,-9.30024 0.67856,-2.475 1.92469,-6.19721 2.76919,-8.27159 1.38151,-3.39346 1.38103,-3.89474 -0.005,-5 -0.84713,-0.67562 -1.8856,-3.02841 -2.30773,-5.22841 -0.42213,-2.2 -0.77762,-5.53194 -0.78997,-7.40431 -0.0156,-2.37275 0.68082,-3.9738 2.29848,-5.2837 l 2.32093,-1.87938 -2.14029,-1.99398 c -1.17715,-1.09669 -2.42367,-3.12308 -2.77003,-4.5031 -0.34636,-1.38001 -0.34647,-3.92553 -2.3e-4,-5.6567 0.34623,-1.73118 1.37594,-3.97238 2.28822,-4.98044 1.55861,-1.72225 1.48626,-2.01286 -1.19896,-4.81562 -1.57172,-1.64052 -3.41181,-2.98277 -4.08908,-2.98277 -0.67727,0 -3.06808,-1.64882 -5.31291,-3.66404 -3.89984,-3.50097 -4.08151,-3.92656 -4.08151,-9.56206 0,-3.24391 0.94089,-10.25759 2.09086,-15.58596 1.14998,-5.328366 2.69182,-11.096185 3.42633,-12.817372 0.73451,-1.721187 3.44749,-4.554818 6.02885,-6.296958 2.58136,-1.742139 4.93951,-2.921395 5.24034,-2.620569 0.30083,0.300827 0.0712,0.546958 -0.5103,0.546958 -0.5815,0 -1.3309,1.6875 -1.66534,3.75 -0.33444,2.0625 -0.66191,4.425 -0.72771,5.25 -0.0658,0.825 -0.9664,5.229926 -2.00133,9.788725 -1.03493,4.558796 -1.8817,10.248156 -1.8817,12.643016 0,2.94798 0.48446,4.54019 1.5,4.92989 0.825,0.31658 1.5,1.50385 1.5,2.63837 0,1.13452 0.67242,2.3208 1.49426,2.63617 0.82184,0.31537 1.24528,0.97625 0.94098,1.46862 -0.3043,0.49236 -0.0767,0.89521 0.50575,0.89521 0.58246,0 1.05901,0.675 1.05901,1.5 0,0.825 0.675,1.5 1.5,1.5 0.825,0 1.5,0.675 1.5,1.5 0,0.825 0.5625,1.53337 1.25,1.57416 0.6875,0.0408 3.05,0.9485 5.25,2.01713 3.98296,1.93468 3.98616,1.94087 0.75,1.45084 -1.7875,-0.27067 -3.25,-0.13881 -3.25,0.29303 0,0.43184 1.28659,2.10809 2.85909,3.725 1.81274,1.86394 2.78728,3.85477 2.66288,5.43984 -0.10792,1.375 0.47245,2.99293 1.28971,3.59539 1.21895,0.89858 1.05494,1.07825 -0.91288,1 -2.08239,-0.0828 -2.40665,0.36626 -2.45835,3.40461 -0.0488,2.86711 0.71973,4.23595 4.25,7.56989 2.37026,2.23844 4.30955,4.88219 4.30955,5.875 0,1.43533 -0.56334,1.69291 -2.75,1.25738 -1.51943,-0.30264 -3.52612,0.0213 -4.48445,0.72387 -0.95395,0.69939 -1.40395,1.63106 -1,2.07039 0.40395,0.43932 -0.2776,0.54957 -1.51455,0.245 -1.23695,-0.30457 -2.48706,-0.16859 -2.77801,0.30218 -0.29095,0.47077 0.39621,1.3511 1.52701,1.95629 1.13081,0.60519 1.78732,1.53511 1.45891,2.06649 -0.3284,0.53137 -1.12851,0.66123 -1.778,0.28857 -0.6495,-0.37266 -0.0935,0.51626 1.2356,1.97538 1.32908,1.45912 2.48969,3.64633 2.57914,4.86047 0.11127,1.51034 1.05403,2.44592 2.98508,2.96237 1.58464,0.42379 3.65607,0.30869 4.72327,-0.26245 1.04545,-0.55951 2.66474,-0.84027 3.59841,-0.62391 1.33208,0.30868 1.11732,0.67443 -0.99739,1.69868 -1.48225,0.71792 -2.94621,1.95996 -3.25325,2.76009 -0.30704,0.80014 -0.30524,1.86419 0.004,2.36455 0.30925,0.50037 1.50545,0.90976 2.65823,0.90976 2.04079,0 2.04776,0.0533 0.26462,2.02363 -1.40396,1.55135 -1.55682,2.29817 -0.65499,3.2 0.647,0.647 1.17637,1.98637 1.17637,2.97637 0,1.171 -0.7457,1.8 -2.13398,1.8 -1.17369,0 -3.83695,0.51022 -5.91837,1.13383 -2.28752,0.68536 -3.98374,1.89616 -4.28839,3.06117 -0.29132,1.114 0.0854,2.15352 0.89266,2.4633 0.76818,0.29478 2.11539,-0.18275 2.99381,-1.06117 0.87842,-0.87842 1.78999,-1.59713 2.0257,-1.59713 0.23572,0 0.42857,0.45965 0.42857,1.02144 0,0.56179 -1.14736,1.54421 -2.54969,2.18316 -2.04958,0.93385 -2.49092,1.76167 -2.25,4.22037 0.18806,1.91932 0.92866,3.17773 1.98821,3.37832 0.92869,0.17582 2.61619,-0.60799 3.75,-1.74181 1.13382,-1.13381 2.51148,-2.06148 3.06148,-2.06148 0.55,0 1,0.34987 1,0.77749 0,0.42763 -0.76034,1.89013 -1.68964,3.25 -0.9293,1.35988 -2.2793,2.83237 -3,3.2722 -0.7207,0.43983 -1.31036,1.67733 -1.31036,2.75 0,1.32176 0.72514,1.98742 2.25,2.06547 1.2375,0.0633 3.00021,0.0414 3.91712,-0.0488 0.91692,-0.0902 1.95069,0.72948 2.29728,1.82149 0.34659,1.092 1.62139,2.13715 2.83288,2.32256 1.34174,0.20533 2.06436,0.91412 1.84873,1.81335 -0.1947,0.81194 -0.49814,2.93637 -0.67432,4.72094 -0.2937,2.97502 -0.15327,3.15528 1.68964,2.16898 1.10548,-0.59164 2.26055,-0.82512 2.56682,-0.51885 0.30627,0.30627 0.10052,1.13023 -0.45722,1.83102 -0.55774,0.7008 -0.89035,1.94917 -0.73912,2.77417 0.15123,0.825 0.57411,2.24198 0.93975,3.14885 0.36563,0.90687 0.26221,1.89766 -0.22984,2.20176 -0.49205,0.3041 -1.91313,0.28657 -3.15797,-0.039 -1.73603,-0.45398 -2.15823,-1.14167 -1.81221,-2.95176 0.24812,-1.29792 0.0635,-2.35987 -0.41021,-2.35987 -0.47373,0 -0.8641,0.7875 -0.86749,1.75 -0.003,0.9625 -0.63542,2.95613 -1.40453,4.43029 -1.34949,2.58661 -1.26264,2.77012 2.48472,5.25 2.1357,1.41334 4.1535,2.56971 4.48399,2.56971 0.33049,0 0.31894,-1.4625 -0.0257,-3.25 -0.59113,-3.06614 -0.53905,-3.14018 0.92054,-1.30887 0.85092,1.06762 1.54712,2.53012 1.54712,3.25 0,0.71988 0.64845,1.30887 1.44099,1.30887 0.79254,0 1.76412,-0.52285 2.15906,-1.16188 0.39495,-0.63904 0.80519,-3.90154 0.91165,-7.25 0.10647,-3.34847 0.53497,-7.77562 0.95223,-9.83812 0.41726,-2.0625 1.04607,-3.75017 1.39736,-3.75038 0.35129,-2e-4 0.57129,5.93832 0.48887,13.19672 -0.0971,8.55441 0.17629,12.61434 0.77719,11.54059 0.50986,-0.91108 2.42449,-1.93743 4.25472,-2.28078 2.50323,-0.46961 3.72875,-1.46532 4.94648,-4.01893 1.04571,-2.19287 2.12242,-3.2014 3.04137,-2.84876 0.78868,0.30264 2.09247,-0.41053 2.92594,-1.60047 1.27972,-1.82705 1.30376,-2.53111 0.16164,-4.73255 -0.9715,-1.87257 -1.18809,-5.09296 -0.78492,-11.67082 0.30625,-4.99654 0.75467,-9.29659 0.9965,-9.55566 0.24182,-0.25907 0.79647,0.10628 1.23256,0.81188 0.43609,0.70561 0.58009,3.49751 0.32001,6.20422 -0.37595,3.91262 -0.13968,5.04916 1.15274,5.54511 1.12237,0.4307 1.62561,1.8505 1.62561,4.58637 0,3.53734 0.24145,3.92827 2.25,3.64301 1.71605,-0.24372 2.37508,-1.15015 2.77706,-3.81955 0.50964,-3.38431 0.56828,-3.42631 1.7742,-1.27052 0.68593,1.22622 0.96884,3.33837 0.62868,4.69367 -0.46896,1.86846 -1.3814,2.53825 -3.77421,2.77052 -2.00228,0.19436 -3.15573,0.85459 -3.15573,1.80633 0,0.825 2.30907,2.73747 5.13126,4.24993 2.8222,1.51247 6.297982,4.27959 7.723982,6.14916 1.98372,2.6008 2.30522,3.63643 1.36874,4.40912 -0.67319,0.55544 -4.02228,1.95082 -7.442432,3.10084 -3.42015,1.15002 -7.61223,2.09095 -9.31574,2.09095 -1.70351,0 -4.0802,0.52122 -5.28155,1.15827 -1.20134,0.63704 -4.16147,2.66204 -6.57806,4.5 -3.5256,2.68141 -5.31385,3.34173 -9.05,3.34173 -2.56091,0 -5.0837,0.42545 -5.6062,0.94545 -0.5225,0.51999 -2.975,1.0424 -5.45,1.16091 -2.475,0.11851 -5.2875,-0.13008 -6.25,-0.55243 -1.23018,-0.53981 -1.75,-0.32235 -1.75,0.73209 0,0.825 -0.69837,1.76799 -1.55193,2.09554 -0.88993,0.34149 -1.29132,0.17385 -0.94099,-0.39301 0.33603,-0.5437 0.18255,-0.98855 -0.34107,-0.98855 -0.52362,0 -1.2185,0.69441 -1.54418,1.54312 -0.47932,1.24908 -1.00032,1.32468 -2.73416,0.39676 -1.6747,-0.89627 -2.34904,-0.85114 -3.09097,0.20688 -0.73844,1.05303 -1.06148,1.07594 -1.45616,0.10324 -0.27896,-0.6875 -1.3697,-1.25 -2.42387,-1.25 -1.05417,0 -1.91667,-0.65747 -1.91667,-1.46104 0,-0.80358 -0.94785,-2.34411 -2.10635,-3.42341 -1.15849,-1.07931 -1.80693,-2.44684 -1.44098,-3.03896 0.36595,-0.59212 0.14067,-1.07659 -0.50064,-1.07659 -0.6413,0 -0.91578,-0.65208 -0.60994,-1.44907 0.39046,-1.01752 0.0756,-1.26472 -1.05706,-0.83006 -1.1392,0.43715 -1.38039,0.24245 -0.82095,-0.66273 0.46409,-0.75092 0.24119,-1.62226 -0.53821,-2.10396 -0.73171,-0.45222 -1.68936,-0.60035 -2.12812,-0.32918 -0.43876,0.27117 -0.79775,1.80492 -0.79775,3.40834 0,2.24727 0.70873,3.2818 3.09294,4.51472 1.70111,0.87968 2.84054,1.8518 2.53206,2.16028 -0.30848,0.30847 -1.93678,-0.009 -3.61845,-0.70563 -2.65567,-1.10001 -3.31713,-1.03161 -5.03207,0.52039 -1.08596,0.98278 -1.97448,2.06451 -1.97448,2.40383 0,0.33933 2.91318,1.16959 6.47373,1.84502 3.56054,0.67543 7.61054,1.22805 9,1.22805 1.38945,0 2.52627,0.45857 2.52627,1.01905 0,0.56048 -1.0125,0.80915 -2.25,0.55259 -1.2375,-0.25655 -4.74607,-0.73609 -7.79684,-1.06562 -3.05076,-0.32954 -6.31326,-0.30506 -7.25,0.0544 -0.93673,0.35946 -1.70316,1.23828 -1.70316,1.95295 0,0.83424 0.76389,1.09963 2.13389,0.74137 1.53829,-0.40227 2.00225,-0.16681 1.66228,0.84362 -0.25937,0.7709 -1.55263,1.41031 -2.87389,1.42091 -1.47257,0.0118 -2.5313,0.68909 -2.73561,1.75 -0.18332,0.9519 -0.63782,1.69784 -1.00999,1.65764 -0.37217,-0.0402 -2.02668,-0.85799 -3.6766797,-1.81732 z M 42.466098,274.0339 c 0,-0.275 -0.225,-0.5 -0.5,-0.5 -0.275,0 -0.5,0.225 -0.5,0.5 0,0.275 0.225,0.5 0.5,0.5 0.275,0 0.5,-0.225 0.5,-0.5 z m 20.5,-9.5 c -0.33991,-0.55 -1.29303,-1 -2.11803,-1 -0.825,0 -1.22188,0.45 -0.88197,1 0.33992,0.55 1.29304,1 2.11804,1 0.825,0 1.22188,-0.45 0.88196,-1 z m 12.5,-1 c 0,-0.55 -0.9,-1 -2,-1 -1.1,0 -2,0.45 -2,1 0,0.55 0.9,1 2,1 1.1,0 2,-0.45 2,-1 z m -15.42497,-4.49706 c -0.0413,-1.92338 -0.41253,-3.49838 -0.82503,-3.5 -0.4125,-0.002 -0.75,1.27206 -0.75,2.83039 0,1.55834 0.3,3.13334 0.66667,3.5 0.36667,0.36667 0.73793,0.66667 0.82503,0.66667 0.0871,0 0.1246,-1.57367 0.0833,-3.49706 z m -31.90836,0.83039 c -0.36667,-0.36666 -0.66667,-0.0667 -0.66667,0.66667 0,0.73333 0.3,1.03333 0.66667,0.66667 0.36667,-0.36667 0.36667,-0.96667 0,-1.33334 z m 61.33333,-0.33333 c 0,-0.55 -0.45,-1 -1,-1 -0.55,0 -1,0.45 -1,1 0,0.55 0.45,1 1,1 0.55,0 1,-0.45 1,-1 z m -24,-3 c 0,-0.55 -0.19844,-1 -0.44098,-1 -0.24254,0 -0.7191,0.45 -1.05902,1 -0.33991,0.55 -0.14147,1 0.44099,1 0.58246,0 1.05901,-0.45 1.05901,-1 z m 35.500002,0 c 0.35053,-0.56716 -0.48961,-1 -1.940982,-1 -1.40746,0 -2.55902,0.45 -2.55902,1 0,0.55 0.87345,1 1.94099,1 1.06754,0 2.219092,-0.45 2.559012,-1 z m -5.500002,-0.5 c 0,-0.275 -0.225,-0.5 -0.5,-0.5 -0.275,0 -0.5,0.225 -0.5,0.5 0,0.275 0.225,0.5 0.5,0.5 0.275,0 0.5,-0.225 0.5,-0.5 z m -42,-1 c 0,-0.275 -0.225,-0.5 -0.5,-0.5 -0.275,0 -0.5,0.225 -0.5,0.5 0,0.275 0.225,0.5 0.5,0.5 0.275,0 0.5,-0.225 0.5,-0.5 z m 36.80834,-0.575 c -0.19709,-0.59125 -0.78584,-1.075 -1.30834,-1.075 -0.5225,0 -1.11125,0.48375 -1.30833,1.075 -0.19708,0.59125 0.39167,1.075 1.30833,1.075 0.91667,0 1.50542,-0.48375 1.30834,-1.075 z m -40.28442,-8.84964 c -0.36228,-1.14145 -1.30337,-2.07536 -2.0913,-2.07536 -0.78794,0 -1.43262,0.867 -1.43262,1.92668 0,1.05967 0.7875,2.10184 1.75,2.31593 0.9625,0.21409 1.90359,0.281 2.09131,0.14868 0.18772,-0.13231 0.0449,-1.17448 -0.31739,-2.31593 z m 37.47608,-8.57536 c 0,-0.275 -0.225,-0.5 -0.5,-0.5 -0.275,0 -0.5,0.225 -0.5,0.5 0,0.275 0.225,0.5 0.5,0.5 0.275,0 0.5,-0.225 0.5,-0.5 z m -39.33333,-8.16667 c -0.36667,-0.36666 -0.66667,-0.0667 -0.66667,0.66667 0,0.73333 0.3,1.03333 0.66667,0.66667 0.36667,-0.36667 0.36667,-0.96667 0,-1.33334 z m 2.33333,-3.83333 c 0,-0.275 -0.225,-0.5 -0.5,-0.5 -0.275,0 -0.5,0.225 -0.5,0.5 0,0.275 0.225,0.5 0.5,0.5 0.275,0 0.5,-0.225 0.5,-0.5 z m -14,-20 c 0,-0.275 -0.225,-0.5 -0.5,-0.5 -0.275,0 -0.5,0.225 -0.5,0.5 0,0.275 0.225,0.5 0.5,0.5 0.275,0 0.5,-0.225 0.5,-0.5 z m 6,-42.5 c 0,-0.55 -0.675,-1 -1.5,-1 -0.825,0 -1.5,0.45 -1.5,1 0,0.55 0.675,1 1.5,1 0.825,0 1.5,-0.45 1.5,-1 z m -9.33333,-5.66667 c -0.36667,-0.36666 -0.66667,-0.0667 -0.66667,0.66667 0,0.73333 0.3,1.03333 0.66667,0.66667 0.36667,-0.36667 0.36667,-0.96667 0,-1.33334 z m 5.33333,-6.83333 c 0,-0.275 -0.225,-0.5 -0.5,-0.5 -0.275,0 -0.5,0.225 -0.5,0.5 0,0.275 0.225,0.5 0.5,0.5 0.275,0 0.5,-0.225 0.5,-0.5 z m 46.33334,136.83333 c 0.36666,-0.36666 0.96666,-0.36666 1.33333,0 0.36667,0.36667 0.0667,0.66667 -0.66667,0.66667 -0.73333,0 -1.03333,-0.3 -0.66666,-0.66667 z m -27.33334,-2.2153 c 0,-0.55 0.45,-1.27811 1,-1.61803 0.55,-0.33992 1,-0.16803 1,0.38197 0,0.55 -0.45,1.27811 -1,1.61803 -0.55,0.33992 -1,0.16803 -1,-0.38197 z m -5,-0.61803 c 0,-0.275 0.225,-0.5 0.5,-0.5 0.275,0 0.5,0.225 0.5,0.5 0,0.275 -0.225,0.5 -0.5,0.5 -0.275,0 -0.5,-0.225 -0.5,-0.5 z m -33.66666,-9.16667 c 0.36666,-0.36666 0.96666,-0.36666 1.33333,0 0.36667,0.36667 0.0667,0.66667 -0.66667,0.66667 -0.73333,0 -1.03333,-0.3 -0.66666,-0.66667 z m 62.66666,-36.83333 c 0,-0.825 0.45,-1.5 1,-1.5 0.55,0 1,0.675 1,1.5 0,0.825 -0.45,1.5 -1,1.5 -0.55,0 -1,-0.675 -1,-1.5 z m -17.5,-4.5 c 0.33992,-0.55 1.29304,-1 2.11804,-1 0.825,0 1.22188,0.45 0.88196,1 -0.33991,0.55 -1.29303,1 -2.11803,1 -0.825,0 -1.22188,-0.45 -0.88197,-1 z m 17.48469,-3.08333 c -0.008,-2.42917 -0.43565,-5.08139 -0.94941,-5.89383 -0.63907,-1.01062 -0.42737,-2.03709 0.6703,-3.25 0.88242,-0.97506 1.89864,-1.77284 2.25828,-1.77284 0.35963,0 0.31161,3.20328 -0.10672,7.1184 -0.41833,3.91512 -1.00732,7.36512 -1.30887,7.66667 -0.30155,0.30154 -0.55516,-1.43924 -0.56358,-3.8684 z m 14.0856,2.06921 c -0.0387,-0.28276 -0.9281,-2.861 -1.97655,-5.72942 -1.04844,-2.86842 -2.00427,-7.58707 -2.12407,-10.48588 -0.1198,-2.89882 -0.1483,-5.94558 -0.0633,-6.77058 0.12205,-1.18509 0.37513,-1.12071 1.20547,0.30666 0.57805,0.99367 1.30432,5.15617 1.61393,9.25 0.30962,4.09384 0.89985,7.44334 1.31162,7.44334 0.41177,0 0.95954,0.5625 1.21727,1.25 0.25773,0.6875 0.11251,2.15 -0.32272,3.25 -0.43524,1.1 -0.82296,1.76865 -0.86162,1.48588 z m -35.57029,-2.98588 c 0.33992,-0.55 0.84304,-1 1.11804,-1 0.275,0 0.22188,0.45 -0.11804,1 -0.33991,0.55 -0.84303,1 -1.11803,1 -0.275,0 -0.22188,-0.45 0.11803,-1 z m -5.23514,-4.65733 c -0.94937,-0.38388 -0.886,-1.17462 0.2739,-3.41762 0.82998,-1.605 3.0733,-3.57177 4.98515,-4.37059 1.99558,-0.83381 3.47609,-2.16185 3.47609,-3.1181 0,-0.91614 1.22194,-3.9108 2.71541,-6.6548 1.49348,-2.74401 2.87916,-4.49786 3.0793,-3.89746 0.20013,0.60041 -0.33958,2.50176 -1.19936,4.22524 -0.85979,1.72347 -1.32125,3.52515 -1.02547,4.00372 0.29577,0.47857 -0.85807,2.89891 -2.56409,5.37854 -1.70603,2.47962 -3.80773,4.5084 -4.67046,4.5084 -1.07626,0 -1.40443,0.62774 -1.04558,2 0.37181,1.4218 0.0442,1.97718 -1.13336,1.92105 -0.91101,-0.0434 -2.2122,-0.30369 -2.89153,-0.57838 z m 40.73514,-5.84267 c 0,-0.275 0.225,-0.5 0.5,-0.5 0.275,0 0.5,0.225 0.5,0.5 0,0.275 -0.225,0.5 -0.5,0.5 -0.275,0 -0.5,-0.225 -0.5,-0.5 z m 1.1579,-3.5 c 0,-1.375 0.22697,-1.9375 0.50439,-1.25 0.27741,0.6875 0.27741,1.8125 0,2.5 -0.27742,0.6875 -0.50439,0.125 -0.50439,-1.25 z m -11.1579,-3 c 0,-0.55 0.47656,-1 1.05902,-1 0.58246,0 0.7809,0.45 0.44098,1 -0.33991,0.55 -0.81647,1 -1.05901,1 -0.24254,0 -0.44099,-0.45 -0.44099,-1 z m 11.07895,-2.58333 c 0.048,-1.16495 0.28494,-1.4019 0.60417,-0.60417 0.28887,0.72188 0.25334,1.58438 -0.0789,1.91667 -0.33229,0.33229 -0.56864,-0.25834 -0.52522,-1.3125 z m -38.57895,-0.41667 c 0.33992,-0.55 0.81648,-1 1.05902,-1 0.24254,0 0.44098,0.45 0.44098,1 0,0.55 -0.47655,1 -1.05901,1 -0.58246,0 -0.7809,-0.45 -0.44099,-1 z m 37.57895,-5.58333 c 0.048,-1.16495 0.28494,-1.4019 0.60417,-0.60417 0.28887,0.72188 0.25334,1.58438 -0.0789,1.91667 -0.33229,0.33229 -0.56864,-0.25834 -0.52522,-1.3125 z m -25.68162,-5.65328 c 0.35602,-1.78013 1.31227,-3.90156 2.125,-4.71428 1.05616,-1.05617 1.47767,-1.12214 1.47767,-0.23128 0,0.68553 -0.65203,2.80695 -1.44897,4.71429 -0.79693,1.90733 -1.75318,3.46788 -2.125,3.46788 -0.37181,0 -0.38473,-1.45647 -0.0287,-3.23661 z m 24.73886,-11.9064 c -0.0749,-1.45366 -0.81119,-2.90203 -1.63619,-3.21862 -0.87686,-0.33648 -1.5,-1.83491 -1.5,-3.60698 0,-1.66727 0.37798,-3.03139 0.83995,-3.03139 0.46196,0 1.40484,1.71167 2.09527,3.8037 0.69043,2.09204 1.04874,4.90454 0.79624,6.25 -0.45539,2.42656 -0.46019,2.42497 -0.59527,-0.19671 z m -52.63619,-8.85699 c 0.33992,-0.55 1.06804,-1 1.61804,-1 0.55,0 0.72188,0.45 0.38196,1 -0.33991,0.55 -1.06803,1 -1.61803,1 -0.55,0 -0.72188,-0.45 -0.38197,-1 z m 30.5,-0.5 c 0,-0.275 0.225,-0.5 0.5,-0.5 0.275,0 0.5,0.225 0.5,0.5 0,0.275 -0.225,0.5 -0.5,0.5 -0.275,0 -0.5,-0.225 -0.5,-0.5 z m 16.61093,-7.32051 c -0.33814,-0.54713 -0.23716,-2.01566 0.22441,-3.2634 l 0.83922,-2.26861 0.62997,2.40901 c 0.34648,1.32496 0.2455,2.79349 -0.22441,3.2634 -0.47251,0.4725 -1.12917,0.40975 -1.46919,-0.1404 z M 117.4661,163.5339 c 0,-0.73333 0.3,-1.03333 0.66667,-0.66667 0.36667,0.36667 0.36667,0.96667 0,1.33334 -0.36667,0.36666 -0.66667,0.0667 -0.66667,-0.66667 z m -1,-4.74052 c 0,-0.54788 1.90389,-1.25151 4.23086,-1.56362 2.32697,-0.31211 4.42697,-0.37136 4.66667,-0.13167 0.23969,0.2397 0.23141,0.6402 -0.0184,0.89002 -0.24982,0.24981 -2.34982,0.75733 -4.66667,1.12781 -2.58156,0.41281 -4.21246,0.28793 -4.21246,-0.32254 z M 78.799438,141.86723 c 0.36666,-0.36666 0.96666,-0.36666 1.33333,0 0.36667,0.36667 0.0667,0.66667 -0.66667,0.66667 -0.73333,0 -1.03333,-0.3 -0.66666,-0.66667 z m -21.33334,-6.8962 c -2.27597,-0.86113 -2.80055,-1.33921 -1.5,-1.36703 1.1,-0.0235 3.0125,0.22855 4.25,0.56019 1.2375,0.33163 2.25,1.00049 2.25,1.48634 0,0.48585 -0.3375,0.82968 -0.75,0.76406 -0.4125,-0.0656 -2.325,-0.71522 -4.25,-1.44356 z m 20,-13.43713 c 0,-0.73333 0.3,-1.03333 0.66667,-0.66667 0.36667,0.36667 0.36667,0.96667 0,1.33334 -0.36667,0.36666 -0.66667,0.0667 -0.66667,-0.66667 z m -44.92973,-6.91054 c -3.27579,-1.74472 -3.33694,-1.87637 -1.36232,-2.93316 1.18362,-0.63345 2.3089,-2.50645 2.63228,-4.38137 0.31068,-1.80121 0.8631,-4.74294 1.22761,-6.53717 0.36452,-1.794233 1.10406,-3.534979 1.64342,-3.868325 0.53937,-0.333347 1.69491,0.108153 2.56786,0.981111 1.4496,1.449596 1.44128,1.748437 -0.096,3.447064 -1.14583,1.26613 -1.68315,3.60651 -1.68315,7.33113 0,3.00919 0.54,6.01126 1.2,6.67126 0.93333,0.93333 0.76666,1.19069 -0.75,1.15809 -1.0725,-0.0231 -3.49339,-0.86394 -5.37974,-1.86863 z m 50.00868,-2.67279 c 0.048,-1.16495 0.28494,-1.4019 0.60417,-0.60417 0.28887,0.72188 0.25334,1.58438 -0.0789,1.91667 -0.33229,0.33229 -0.56864,-0.25834 -0.52522,-1.3125 z m -5.07895,0.0833 c 0,-0.275 0.225,-0.5 0.5,-0.5 0.275,0 0.5,0.225 0.5,0.5 0,0.275 -0.225,0.5 -0.5,0.5 -0.275,0 -0.5,-0.225 -0.5,-0.5 z m -0.44422,-14.409759 c -0.30925,-0.500367 -0.27318,-1.663098 0.0802,-2.583846 0.51198,-1.334216 0.81406,-1.403292 1.48793,-0.340242 0.46504,0.733615 0.85241,1.896346 0.86084,2.583846 0.008,0.6875 -0.40813,1.25 -0.92567,1.25 -0.51754,0 -1.194,-0.409391 -1.50325,-0.909758 z m -1.3521,-8.135721 c -0.77257,-1.237072 -0.83892,-1.954521 -0.18076,-1.954521 0.57192,0 1.30632,0.694407 1.63201,1.543128 0.32568,0.84872 0.40702,1.728255 0.18076,1.954521 -0.22627,0.226267 -0.96067,-0.468141 -1.63201,-1.543128 z m -16.70368,-0.954521 c -0.33991,-0.55 -0.16803,-1 0.38197,-1 0.55,0 1.27812,0.45 1.61803,1 0.33992,0.55 0.16804,1 -0.38196,1 -0.55,0 -1.27812,-0.45 -1.61804,-1 z m 8.43018,-4.20398 c -0.86341,-1.171145 -2.31876,-2.129354 -3.23413,-2.129354 -1.27353,0 -1.40448,-0.313057 -0.55772,-1.333333 0.83973,-1.011813 0.73944,-1.333333 -0.41588,-1.333333 -1.04675,0 -1.52886,-1.015473 -1.54297,-3.25 -0.0113,-1.7875 -0.30626,-4.825 -0.65548,-6.75 -0.34923,-1.925 -1.01431,-3.881822 -1.47797,-4.348492 -0.46365,-0.466671 -2.86141,-0.975538 -5.32834,-1.130817 -2.46694,-0.155279 -4.9435,0.0015 -5.50347,0.348492 -0.55997,0.346949 -1.32534,2.681604 -1.70082,5.188121 -0.53053,3.541535 -0.32949,4.850433 0.90196,5.872445 0.87155,0.723327 1.58464,2.051794 1.58464,2.952149 0,0.900354 0.94383,2.226434 2.09738,2.946843 1.15356,0.720409 1.87134,1.535878 1.59506,1.812153 -0.27627,0.276274 -1.48299,-0.317405 -2.68159,-1.319288 -1.19859,-1.001884 -3.11023,-2.609106 -4.24807,-3.571606 -1.13784,-0.9625 -2.92952,-1.75 -3.98153,-1.75 -1.052,0 -2.67064,0.358558 -3.59699,0.796796 -0.92634,0.438238 -3.48426,0.521267 -5.68426,0.184509 -3.91423,-0.599159 -3.94639,-0.636939 -1.5,-1.762075 1.375,-0.632383 3.54682,-2.052832 4.82627,-3.156553 1.62616,-1.402824 2.13255,-2.617086 1.68261,-4.034722 -0.35401,-1.115375 -1.25162,-2.027955 -1.9947,-2.027955 -0.74308,0 -2.26691,-1.48189 -3.3863,-3.293089 -1.11938,-1.811198 -2.4457,-5.910574 -2.94738,-9.109723 -0.57885,-3.69129 -0.54811,-7.250756 0.0841,-9.741529 0.55554,-2.188635 1.89908,-4.408074 3.03714,-5.017144 1.12248,-0.600737 3.14265,-2.401622 4.48925,-4.001967 1.3466,-1.600344 4.02446,-3.568254 5.95081,-4.373133 1.92635,-0.804878 4.10837,-1.463415 4.84894,-1.463415 0.78604,0 1.1069,0.624348 0.77089,1.5 -0.31659,0.825 -1.17591,1.5 -1.9096,1.5 -0.7337,0 -1.53264,0.3375 -1.77542,0.75 -0.24278,0.4125 -0.75509,2.2125 -1.13847,4 -0.40729,1.898986 -0.29681,3.25 0.26577,3.25 0.52956,0 1.2406,-0.7875 1.5801,-1.75 0.3395,-0.9625 0.90037,-2.375138 1.24636,-3.139196 0.39659,-0.875779 0.21157,-1.131152 -0.50064,-0.690983 -0.62135,0.384017 -1.12973,0.221655 -1.12973,-0.360804 0,-0.58246 1.15156,-1.059017 2.55902,-1.059017 1.66993,0 2.31274,-0.398484 1.85016,-1.146941 -0.50951,-0.824417 0.57015,-1.002779 3.83944,-0.634283 2.50156,0.281962 5.15649,1.038433 5.89983,1.681047 0.74335,0.642614 2.12405,1.715541 3.06822,2.384283 1.00722,0.713398 1.92994,3.07562 2.23272,5.715894 0.49951,4.355739 0.47991,4.395811 -0.61133,1.25 -0.62006,-1.7875 -1.53201,-3.25 -2.02656,-3.25 -0.49455,0 -0.76695,0.771186 -0.60534,1.713748 0.17398,1.014674 -0.46073,1.868265 -1.55594,2.09254 -1.57905,0.323352 -1.75343,-0.0599 -1.19146,-2.618548 0.38946,-1.773173 0.21802,-3.269469 -0.41977,-3.66364 -0.59295,-0.366465 -2.6389,-0.151188 -4.54655,0.478393 -2.40792,0.794687 -3.97181,2.205437 -5.11467,4.61385 -1.17932,2.485221 -1.47812,4.888571 -1.05351,8.473721 0.45733,3.861401 0.25956,5.132407 -0.86577,5.564239 -0.80217,0.307821 -1.45849,0.968144 -1.45849,1.467384 0,0.49924 1.39254,1.754565 3.09454,2.789611 2.47237,1.503538 4.33211,1.775242 9.25,1.351401 3.3855,-0.291776 6.94296,-0.936078 7.90546,-1.431784 1.14418,-0.589277 1.75,-0.526394 1.75,0.18165 0,0.595613 -1.125,2.125547 -2.5,3.399854 -1.375,1.274307 -2.5,3.241016 -2.5,4.370464 0,1.129448 0.27314,2.765346 0.60699,3.635329 0.33384,0.869983 1.17874,1.581788 1.87755,1.581788 0.69881,0 1.79838,0.635977 2.44349,1.413282 0.64511,0.777305 1.32863,3.702305 1.51894,6.5 0.1903,2.797695 0.28009,5.069927 0.19952,5.049404 -0.0806,-0.02052 -0.85291,-0.995522 -1.71632,-2.166666 z m -23.93018,-15.29602 c 0,-0.275 -0.225,-0.5 -0.5,-0.5 -0.275,0 -0.5,0.225 -0.5,0.5 0,0.275 0.225,0.5 0.5,0.5 0.275,0 0.5,-0.225 0.5,-0.5 z m -3.33333,-18.166667 c -0.36667,-0.366667 -0.66667,-0.06667 -0.66667,0.666667 0,0.733333 0.3,1.033333 0.66667,0.666666 0.36667,-0.366666 0.36667,-0.966666 0,-1.333333 z m 4.26305,-5.583333 c 0.0387,-2.0625 -0.35932,-3.75 -0.8844,-3.75 -0.52508,0 -1.24282,1.535877 -1.59498,3.413061 -0.35217,1.877183 -0.30597,4.464683 0.10265,5.75 0.71226,2.240418 0.77523,2.254334 1.52469,0.336939 0.42997,-1.1 0.81338,-3.6875 0.85204,-5.75 z m 11.05497,-11 c -0.0113,-1.657531 -0.24352,-1.88977 -0.88196,-0.881966 -0.47666,0.752418 -1.48227,1.758028 -2.23469,2.234687 -1.0078,0.638446 -0.77557,0.870685 0.88196,0.881966 1.67568,0.0114 2.2461,-0.559008 2.23469,-2.234687 z m 17.4742,49.183468 c -0.36254,-0.586592 -0.4085,-1.317184 -0.10215,-1.623538 0.30636,-0.306354 1.25142,-0.290538 2.10014,0.03515 0.84872,0.325685 1.54312,1.056277 1.54312,1.623539 0,0.567261 -0.64844,1.031385 -1.44098,1.031385 -0.79254,0 -1.7376,-0.479939 -2.10013,-1.066532 z m -21.12555,-6.600135 c 0.36666,-0.366667 0.96666,-0.366667 1.33333,0 0.36667,0.366667 0.0667,0.666667 -0.66667,0.666667 -0.73333,0 -1.03333,-0.3 -0.66666,-0.666667 z m 11.68198,-26.416667 c 0.008,-0.779166 0.45968,-2.091666 1.0028,-2.916666 0.78364,-1.190368 0.92342,-1.040871 0.67712,0.72423 -0.1707,1.223327 -0.62196,2.535827 -1.0028,2.916667 -0.38084,0.38084 -0.68554,0.05494 -0.67712,-0.724231 z"
       id="path1" />
  </g>
</svg>
