<svg version="1.1" viewBox="0.0 0.0 1331.6666666666667 641.6666666666666" fill="none" stroke="none" stroke-linecap="square" stroke-miterlimit="10" xmlns:xlink="http://www.w3.org/1999/xlink" xmlns="http://www.w3.org/2000/svg"><clipPath id="p.0"><path d="m0 0l1331.6666 0l0 641.6667l-1331.6666 0l0 -641.6667z" clip-rule="nonzero"/></clipPath><g clip-path="url(#p.0)"><path fill="#000000" fill-opacity="0.0" d="m0 0l1331.6666 0l0 641.6667l-1331.6666 0z" fill-rule="evenodd"/><path fill="#000000" fill-opacity="0.0" d="m692.3583 243.4462l573.1023 0l0 242.55118l-573.1023 0z" fill-rule="evenodd"/><path fill="#000000" d="m759.46765 415.4137q-5.71875 0 -10.953125 -1.84375q-5.234375 -1.859375 -9.203125 -4.96875q-3.953125 -3.109375 -6.25 -6.890625q-2.296875 -3.78125 -2.5 -7.640625l4.875 -2.359375l-4.5625 21.515625l-17.3125 0l26.3125 -123.8125l17.3125 0l-11.953125 56.265625l-2.375 -1.5q1.65625 -3.875 5.28125 -7.484375q3.625 -3.609375 8.703125 -6.546875q5.078125 -2.9375 10.65625 -4.703125q5.578125 -1.765625 10.953125 -1.765625q11.9375 0 19.921875 5.890625q8.0 5.875 11.171875 16.203125q3.1875 10.328125 0.359375 23.59375q-2.8125 13.28125 -10.328125 23.703125q-7.515625 10.40625 -18.015625 16.375q-10.5 5.96875 -22.09375 5.96875zm0.5 -15.796875q7.734375 0 14.609375 -3.953125q6.890625 -3.953125 11.859375 -10.75q4.96875 -6.796875 6.828125 -15.546875q1.828125 -8.5625 -0.171875 -15.359375q-2.0 -6.8125 -7.234375 -10.671875q-5.21875 -3.859375 -13.109375 -3.859375q-7.890625 0 -14.765625 3.859375q-6.875 3.859375 -11.84375 10.671875q-4.96875 6.796875 -6.796875 15.359375q-1.859375 8.75 0.21875 15.546875q2.078125 6.796875 7.296875 10.75q5.21875 3.953125 13.109375 3.953125zm98.621216 15.796875q-12.9375 0 -21.84375 -5.96875q-8.890625 -5.96875 -12.578125 -16.296875q-3.6875 -10.328125 -0.859375 -23.609375q2.828125 -13.265625 10.90625 -23.59375q8.078125 -10.34375 19.5 -16.296875q11.4375 -5.96875 24.375 -5.96875q12.765625 0 21.65625 5.96875q8.90625 5.953125 12.578125 16.296875q3.6875 10.328125 0.859375 23.59375q-2.828125 13.28125 -10.90625 23.609375q-8.0625 10.328125 -19.5 16.296875q-11.421875 5.96875 -24.1875 5.96875zm3.359375 -15.796875q7.890625 0 14.9375 -3.953125q7.0625 -3.953125 12.03125 -10.75q4.96875 -6.796875 6.625 -15.375q2.03125 -8.734375 -0.046875 -15.53125q-2.078125 -6.8125 -7.484375 -10.671875q-5.390625 -3.859375 -13.28125 -3.859375q-7.90625 0 -15.046875 3.953125q-7.125 3.9375 -12.109375 10.75q-4.96875 6.796875 -6.625 15.359375q-2.0 8.578125 0.078125 15.375q2.09375 6.796875 7.546875 10.75q5.46875 3.953125 13.375 3.953125zm91.22626 15.796875q-9.421875 0 -15.46875 -4.375q-6.03125 -4.375 -8.140625 -12.265625q-2.09375 -7.890625 0.21875 -18.8125l11.578125 -54.4375l17.3125 0l-10.578125 49.734375q-1.640625 7.71875 -0.40625 13.359375q1.234375 5.625 5.21875 8.65625q3.984375 3.015625 10.53125 3.015625q4.875 0 9.234375 -1.59375q4.375 -1.59375 7.921875 -4.453125q3.546875 -2.859375 6.078125 -6.890625q2.546875 -4.03125 3.546875 -8.734375l11.28125 -53.09375l17.3125 0l-18.75 88.203125l-17.3125 0l3.921875 -18.484375l3.46875 -2.015625q-3.34375 6.21875 -9.203125 11.265625q-5.859375 5.03125 -13.046875 7.984375q-7.171875 2.9375 -14.71875 2.9375zm110.37433 0q-12.9375 0 -21.84375 -5.96875q-8.890625 -5.96875 -12.578125 -16.296875q-3.6875 -10.328125 -0.859375 -23.609375q2.828125 -13.265625 10.90625 -23.59375q8.078125 -10.34375 19.5 -16.296875q11.4375 -5.96875 24.375 -5.96875q12.765625 0 21.65625 5.96875q8.90625 5.953125 12.578125 16.296875q3.6875 10.328125 0.859375 23.59375q-2.828125 13.28125 -10.90625 23.609375q-8.0625 10.328125 -19.5 16.296875q-11.421875 5.96875 -24.1875 5.96875zm3.359375 -15.796875q7.890625 0 14.9375 -3.953125q7.0625 -3.953125 12.03125 -10.75q4.96875 -6.796875 6.625 -15.375q2.03125 -8.734375 -0.046875 -15.53125q-2.078125 -6.8125 -7.484375 -10.671875q-5.390625 -3.859375 -13.28125 -3.859375q-7.90625 0 -15.046875 3.953125q-7.125 3.9375 -12.109375 10.75q-4.96875 6.796875 -6.625 15.359375q-2.0 8.578125 0.078125 15.375q2.09375 6.796875 7.546875 10.75q5.46875 3.953125 13.375 3.953125z" fill-rule="nonzero"/><path fill="#010000" fill-opacity="0.0" d="m1115.4783 245.72621l0 0l0 209.99998l0 0l0 -209.99998z" fill-rule="nonzero"/><path fill="#000000" fill-opacity="0.0" d="m759.2618 260.7892c-0.65911865 -24.285187 80.781006 -199.55273 -3.954834 -145.71109c-84.73584 53.84166 -405.47815 436.86835 -504.46008 468.761c-98.981964 31.8927 -232.0015 -216.13657 -89.43164 -277.4051c142.56984 -61.268524 787.3756 -75.17172 944.85065 -90.206055" fill-rule="evenodd"/><path stroke="#000000" stroke-width="16.0" stroke-linejoin="round" stroke-linecap="butt" d="m759.2618 260.7892c-0.65911865 -24.285187 80.781006 -199.55273 -3.954834 -145.71109c-84.73584 53.84166 -405.47815 436.86835 -504.46008 468.761c-98.981964 31.8927 -232.0015 -216.13657 -89.43164 -277.4051c142.56984 -61.268524 787.3756 -75.17172 944.85065 -90.206055" fill-rule="evenodd"/><path fill="#000000" d="m524.26245 397.0735l0 0c0 -5.6098022 3.7156982 -10.157471 8.299255 -10.157471l0 0c2.2010498 0 4.3120117 1.0701599 5.868408 2.9750671c1.5563965 1.9048767 2.4307861 4.4884644 2.4307861 7.1824036l0 0c0 5.609833 -3.7156982 10.157471 -8.299194 10.157471l0 0c-4.583557 0 -8.299255 -4.547638 -8.299255 -10.157471z" fill-rule="evenodd"/><path stroke="#000000" stroke-width="16.0" stroke-linejoin="round" stroke-linecap="butt" d="m524.26245 397.0735l0 0c0 -5.6098022 3.7156982 -10.157471 8.299255 -10.157471l0 0c2.2010498 0 4.3120117 1.0701599 5.868408 2.9750671c1.5563965 1.9048767 2.4307861 4.4884644 2.4307861 7.1824036l0 0c0 5.609833 -3.7156982 10.157471 -8.299194 10.157471l0 0c-4.583557 0 -8.299255 -4.547638 -8.299255 -10.157471z" fill-rule="evenodd"/><path fill="#000000" d="m1107.0381 223.60725l29.758911 -17.080307l-34.294434 2.5921173z" fill-rule="evenodd"/><path stroke="#000000" stroke-width="1.0" stroke-linejoin="round" stroke-linecap="butt" d="m1107.0381 223.60725l29.758911 -17.080307l-34.294434 2.5921173z" fill-rule="evenodd"/><path fill="#000000" fill-opacity="0.0" d="m672.37164 409.41663c3.2993164 -18.940948 32.727417 -114.58392 19.79596 -113.64581c-12.9313965 0.93814087 -81.15381 99.39551 -97.38458 119.2746" fill-rule="evenodd"/><path stroke="#000000" stroke-width="16.0" stroke-linejoin="round" stroke-linecap="butt" d="m672.37164 409.41663c3.2993164 -18.940948 32.727417 -114.58392 19.79596 -113.64581c-12.9313965 0.93814087 -81.15381 99.39551 -97.38458 119.2746" fill-rule="evenodd"/><path fill="#000000" fill-opacity="0.0" d="m683.8679 364.01126c-9.164978 0.23687744 -45.825012 1.1844788 -54.98999 1.4213867" fill-rule="evenodd"/><path stroke="#000000" stroke-width="16.0" stroke-linejoin="round" stroke-linecap="butt" d="m683.8679 364.01126c-9.164978 0.23687744 -45.825012 1.1844788 -54.98999 1.4213867" fill-rule="evenodd"/><path fill="#000000" d="m663.8937 412.42783l1.2992554 -5.196869l15.299194 0l-1.2991943 5.196869z" fill-rule="evenodd"/><path stroke="#000000" stroke-width="1.0" stroke-linejoin="round" stroke-linecap="butt" d="m663.8937 412.42783l1.2992554 -5.196869l15.299194 0l-1.2991943 5.196869z" fill-rule="evenodd"/><path fill="#000000" d="m600.85675 419.55118l-34.412903 17.94345l24.58612 -30.16391z" fill-rule="evenodd"/><path stroke="#000000" stroke-width="1.0" stroke-linejoin="round" stroke-linecap="butt" d="m600.85675 419.55118l-34.412903 17.94345l24.58612 -30.16391z" fill-rule="evenodd"/><path fill="#000000" fill-opacity="0.0" d="m1128.706 283.12335c-4.0595703 21.546783 -20.297485 107.73386 -24.356934 129.28061" fill-rule="evenodd"/><path stroke="#000000" stroke-width="16.0" stroke-linejoin="round" stroke-linecap="butt" d="m1128.706 283.12335c-4.0595703 21.546783 -20.297485 107.73386 -24.356934 129.28061" fill-rule="evenodd"/><path fill="#000000" d="m1096.3215 414.32285l1.2991943 -5.196869l15.299194 0l-1.2991943 5.196869z" fill-rule="evenodd"/><path stroke="#000000" stroke-width="1.0" stroke-linejoin="round" stroke-linecap="butt" d="m1096.3215 414.32285l1.2991943 -5.196869l15.299194 0l-1.2991943 5.196869z" fill-rule="evenodd"/><path fill="#000000" d="m1135.945 285.09253l4.7558594 -23.937012l-19.244019 21.039368z" fill-rule="evenodd"/><path stroke="#000000" stroke-width="1.0" stroke-linejoin="round" stroke-linecap="butt" d="m1135.945 285.09253l4.7558594 -23.937012l-19.244019 21.039368z" fill-rule="evenodd"/><path fill="#000000" d="m747.6877 273.52493l5.0787354 -20.314957l15.330688 0l-5.0787354 20.314957z" fill-rule="evenodd"/><path stroke="#000000" stroke-width="1.0" stroke-linejoin="round" stroke-linecap="butt" d="m747.6877 273.52493l5.0787354 -20.314957l15.330688 0l-5.0787354 20.314957z" fill-rule="evenodd"/></g></svg>