<svg version="1.1" viewBox="0.0 0.0 1194.6246719160106 476.34383202099735" fill="none" stroke="none" stroke-linecap="square" stroke-miterlimit="10" xmlns:xlink="http://www.w3.org/1999/xlink" xmlns="http://www.w3.org/2000/svg"><clipPath id="p.0"><path d="m0 0l1194.6246 0l0 476.34384l-1194.6246 0l0 -476.34384z" clip-rule="nonzero"/></clipPath><g clip-path="url(#p.0)"><path fill="#000000" fill-opacity="0.0" d="m0 0l1194.6246 0l0 476.34384l-1194.6246 0z" fill-rule="evenodd"/><path fill="#000000" fill-opacity="0.0" d="m633.1257 160.21376l604.9764 0l0 242.55116l-604.9764 0z" fill-rule="evenodd"/><path fill="#85200c" d="m700.23505 332.18124q-5.71875 0 -10.953125 -1.84375q-5.234375 -1.859375 -9.203125 -4.96875q-3.953125 -3.109375 -6.25 -6.890625q-2.296875 -3.78125 -2.5 -7.640625l4.875 -2.359375l-4.5625 21.515625l-17.3125 0l26.3125 -123.812485l17.3125 0l-11.953125 56.26561l-2.375 -1.5q1.65625 -3.875 5.28125 -7.4843597q3.625 -3.609375 8.703125 -6.546875q5.078125 -2.9375 10.65625 -4.703125q5.578125 -1.765625 10.953125 -1.765625q11.9375 0 19.921875 5.890625q8.0 5.875 11.171875 16.20311q3.1875 10.328125 0.359375 23.59375q-2.8125 13.28125 -10.328125 23.703125q-7.515625 10.40625 -18.015625 16.375q-10.5 5.96875 -22.09375 5.96875zm0.5 -15.796875q7.734375 0 14.609375 -3.953125q6.890625 -3.953125 11.859375 -10.75q4.96875 -6.796875 6.828125 -15.546875q1.828125 -8.5625 -0.171875 -15.359375q-2.0 -6.8125 -7.234375 -10.671875q-5.21875 -3.859375 -13.109375 -3.859375q-7.890625 0 -14.765625 3.859375q-6.875 3.859375 -11.84375 10.671875q-4.96875 6.796875 -6.796875 15.359375q-1.859375 8.75 0.21875 15.546875q2.078125 6.796875 7.296875 10.75q5.21875 3.953125 13.109375 3.953125zm105.34003 15.796875q-5.71875 0 -10.953125 -1.84375q-5.234375 -1.859375 -9.203125 -4.96875q-3.953125 -3.109375 -6.25 -6.890625q-2.296875 -3.78125 -2.5 -7.640625l4.875 -2.359375l-4.5625 21.515625l-17.3125 0l26.3125 -123.812485l17.3125 0l-11.953125 56.26561l-2.375 -1.5q1.65625 -3.875 5.28125 -7.4843597q3.625 -3.609375 8.703125 -6.546875q5.078125 -2.9375 10.65625 -4.703125q5.578125 -1.765625 10.953125 -1.765625q11.9375 0 19.921875 5.890625q8.0 5.875 11.171875 16.20311q3.1875 10.328125 0.359375 23.59375q-2.8125 13.28125 -10.328125 23.703125q-7.515625 10.40625 -18.015625 16.375q-10.5 5.96875 -22.09375 5.96875zm0.5 -15.796875q7.734375 0 14.609375 -3.953125q6.890625 -3.953125 11.859375 -10.75q4.96875 -6.796875 6.828125 -15.546875q1.828125 -8.5625 -0.171875 -15.359375q-2.0 -6.8125 -7.234375 -10.671875q-5.21875 -3.859375 -13.109375 -3.859375q-7.890625 0 -14.765625 3.859375q-6.875 3.859375 -11.84375 10.671875q-4.96875 6.796875 -6.796875 15.359375q-1.859375 8.75 0.21875 15.546875q2.078125 6.796875 7.296875 10.75q5.21875 3.953125 13.109375 3.953125zm98.621216 15.796875q-12.9375 0 -21.84375 -5.96875q-8.890625 -5.96875 -12.578125 -16.296875q-3.6875 -10.328125 -0.859375 -23.609375q2.828125 -13.265625 10.90625 -23.59375q8.078125 -10.343735 19.5 -16.29686q11.4375 -5.96875 24.375 -5.96875q12.765625 0 21.65625 5.96875q8.90625 5.953125 12.578125 16.29686q3.6875 10.328125 0.859375 23.59375q-2.828125 13.28125 -10.90625 23.609375q-8.0625 10.328125 -19.5 16.296875q-11.421875 5.96875 -24.1875 5.96875zm3.359375 -15.796875q7.890625 0 14.9375 -3.953125q7.0625 -3.953125 12.03125 -10.75q4.96875 -6.796875 6.625 -15.375q2.03125 -8.734375 -0.046875 -15.53125q-2.078125 -6.8125 -7.484375 -10.671875q-5.390625 -3.859375 -13.28125 -3.859375q-7.90625 0 -15.046875 3.953125q-7.125 3.9375 -12.109375 10.75q-4.96875 6.796875 -6.625 15.359375q-2.0 8.578125 0.078125 15.375q2.09375 6.796875 7.546875 10.75q5.46875 3.953125 13.375 3.953125zm91.22626 15.796875q-9.421875 0 -15.46875 -4.375q-6.03125 -4.375 -8.140625 -12.265625q-2.09375 -7.890625 0.21875 -18.8125l11.578125 -54.437485l17.3125 0l-10.578125 49.73436q-1.640625 7.71875 -0.40625 13.359375q1.234375 5.625 5.21875 8.65625q3.984375 3.015625 10.53125 3.015625q4.875 0 9.234375 -1.59375q4.375 -1.59375 7.921936 -4.453125q3.546875 -2.859375 6.078125 -6.890625q2.546875 -4.03125 3.546875 -8.734375l11.28125 -53.093735l17.3125 0l-18.75 88.20311l-17.3125 0l3.921875 -18.484375l3.46875 -2.015625q-3.34375 6.21875 -9.203125 11.265625q-5.859436 5.03125 -13.046936 7.984375q-7.171875 2.9375 -14.71875 2.9375zm110.37433 0q-12.9375 0 -21.84375 -5.96875q-8.890625 -5.96875 -12.578125 -16.296875q-3.6875 -10.328125 -0.859375 -23.609375q2.828125 -13.265625 10.90625 -23.59375q8.078125 -10.343735 19.5 -16.29686q11.4375 -5.96875 24.375 -5.96875q12.765625 0 21.656372 5.96875q8.90625 5.953125 12.578125 16.29686q3.6875 10.328125 0.859375 23.59375q-2.828125 13.28125 -10.90625 23.609375q-8.0625 10.328125 -19.500122 16.296875q-11.421875 5.96875 -24.1875 5.96875zm3.359375 -15.796875q7.890625 0 14.9375 -3.953125q7.0625 -3.953125 12.03125 -10.75q4.968872 -6.796875 6.625122 -15.375q2.03125 -8.734375 -0.046875 -15.53125q-2.078247 -6.8125 -7.484497 -10.671875q-5.390625 -3.859375 -13.28125 -3.859375q-7.90625 0 -15.046875 3.953125q-7.125 3.9375 -12.109375 10.75q-4.96875 6.796875 -6.625 15.359375q-2.0 8.578125 0.078125 15.375q2.09375 6.796875 7.546875 10.75q5.46875 3.953125 13.375 3.953125z" fill-rule="nonzero"/><path fill="#010000" fill-opacity="0.0" d="m1162.0857 162.49377l0 0l0 209.99997l0 0l0 -209.99997z" fill-rule="nonzero"/><path fill="#000000" fill-opacity="0.0" d="m710.7302 163.37955c0.21203613 -24.29425 92.666504 -196.23001 1.272522 -145.76558c-91.39398 50.46444 -444.03516 420.58298 -549.63635 448.5522c-105.60117 27.969208 -236.64748 -225.1303 -83.97072 -280.73697c152.67676 -55.60669 833.35944 -44.085938 1000.0313 -52.903122" fill-rule="evenodd"/><path stroke="#000000" stroke-width="16.0" stroke-linejoin="round" stroke-linecap="butt" d="m710.7302 163.37955c0.21203613 -24.29425 92.666504 -196.23001 1.272522 -145.76558c-91.39398 50.46444 -444.03516 420.58298 -549.63635 448.5522c-105.60117 27.969208 -236.64748 -225.1303 -83.97072 -280.73697c152.67676 -55.60669 833.35944 -44.085938 1000.0313 -52.903122" fill-rule="evenodd"/><path fill="#000000" d="m460.29398 314.55905l0 0c0 -5.218445 4.082306 -9.448822 9.118103 -9.448822l0 0c2.418274 0 4.737488 0.9955139 6.4474792 2.7674866c1.7099609 1.7720032 2.6706238 4.175354 2.6706238 6.6813354l0 0c0 5.218445 -4.082306 9.448822 -9.118103 9.448822l0 0c-5.035797 0 -9.118103 -4.230377 -9.118103 -9.448822z" fill-rule="evenodd"/><path stroke="#000000" stroke-width="16.0" stroke-linejoin="round" stroke-linecap="butt" d="m460.29398 314.55905l0 0c0 -5.218445 4.082306 -9.448822 9.118103 -9.448822l0 0c2.418274 0 4.737488 0.9955139 6.4474792 2.7674866c1.7099609 1.7720032 2.6706238 4.175354 2.6706238 6.6813354l0 0c0 5.218445 -4.082306 9.448822 -9.118103 9.448822l0 0c-5.035797 0 -9.118103 -4.230377 -9.118103 -9.448822z" fill-rule="evenodd"/><path fill="#000000" d="m1079.0865 138.81056l30.923218 -16.206177l-35.269653 3.040825z" fill-rule="evenodd"/><path stroke="#000000" stroke-width="1.0" stroke-linejoin="round" stroke-linecap="butt" d="m1079.0865 138.81056l30.923218 -16.206177l-35.269653 3.040825z" fill-rule="evenodd"/><path fill="#000000" fill-opacity="0.0" d="m616.64044 326.18408c3.4821777 -18.940979 34.54309 -114.58394 20.892944 -113.64581c-13.6501465 0.9381256 -85.6615 99.39548 -102.79382 119.27457" fill-rule="evenodd"/><path stroke="#85200c" stroke-width="16.0" stroke-linejoin="round" stroke-linecap="butt" d="m616.64044 326.18408c3.4821777 -18.940979 34.54309 -114.58394 20.892944 -113.64581c-13.6501465 0.9381256 -85.6615 99.39548 -102.79382 119.27457" fill-rule="evenodd"/><path fill="#000000" fill-opacity="0.0" d="m628.778 280.77856c-9.674988 0.23690796 -48.375 1.1844788 -58.049988 1.4213867" fill-rule="evenodd"/><path stroke="#85200c" stroke-width="16.0" stroke-linejoin="round" stroke-linecap="butt" d="m628.778 280.77856c-9.674988 0.23690796 -48.375 1.1844788 -58.049988 1.4213867" fill-rule="evenodd"/><path fill="#85200c" d="m607.6918 329.19504l1.2991943 -5.1968384l16.212585 0l-1.2991943 5.1968384z" fill-rule="evenodd"/><path stroke="#85200c" stroke-width="1.0" stroke-linejoin="round" stroke-linecap="butt" d="m607.6918 329.19504l1.2991943 -5.1968384l16.212585 0l-1.2991943 5.1968384z" fill-rule="evenodd"/><path fill="#85200c" d="m541.13525 336.31833l-36.309143 17.94345l25.94696 -30.16391z" fill-rule="evenodd"/><path stroke="#85200c" stroke-width="1.0" stroke-linejoin="round" stroke-linecap="butt" d="m541.13525 336.31833l-36.309143 17.94345l25.94696 -30.16391z" fill-rule="evenodd"/><path fill="#000000" fill-opacity="0.0" d="m1181.658 199.91446c-4.2852783 21.546768 -21.426025 107.73386 -25.711304 129.28061" fill-rule="evenodd"/><path stroke="#85200c" stroke-width="16.0" stroke-linejoin="round" stroke-linecap="butt" d="m1181.658 199.91446c-4.2852783 21.546768 -21.426025 107.73386 -25.711304 129.28061" fill-rule="evenodd"/><path fill="#85200c" d="m1147.7034 330.85565l1.2993164 -5.196869l15.299194 0l-1.2991943 5.196869z" fill-rule="evenodd"/><path stroke="#85200c" stroke-width="1.0" stroke-linejoin="round" stroke-linecap="butt" d="m1147.7034 330.85565l1.2993164 -5.196869l15.299194 0l-1.2991943 5.196869z" fill-rule="evenodd"/><path fill="#85200c" d="m1188.9423 201.58432l4.881836 -23.433075l-19.527466 20.661407z" fill-rule="evenodd"/><path stroke="#85200c" stroke-width="1.0" stroke-linejoin="round" stroke-linecap="butt" d="m1188.9423 201.58432l4.881836 -23.433075l-19.527466 20.661407z" fill-rule="evenodd"/><path fill="#000000" d="m718.23615 163.54852l-25.448853 14.929138l14.834656 -33.732285z" fill-rule="evenodd"/><path stroke="#000000" stroke-width="1.0" stroke-linejoin="round" stroke-linecap="butt" d="m718.23615 163.54852l-25.448853 14.929138l14.834656 -33.732285z" fill-rule="evenodd"/></g></svg>